<?xml version="1.0" encoding="utf-8"?>
<!-- Generator: Adobe Illustrator 16.0.0, SVG Export Plug-In . SVG Version: 6.00 Build 0)  -->
<!DOCTYPE svg PUBLIC "-//W3C//DTD SVG 1.1//EN" "http://www.w3.org/Graphics/SVG/1.1/DTD/svg11.dtd">
<svg version="1.1" id="Layer_1" xmlns="http://www.w3.org/2000/svg" xmlns:xlink="http://www.w3.org/1999/xlink" x="0px" y="0px"
	 width="75px" height="25px" viewBox="0 0 75 25" enable-background="new 0 0 75 25" xml:space="preserve">
<g>
	<g opacity="0.25">
		<path fill="#040200" d="M58.65,5.591l-0.482,0.482v6.175c0,1.087-0.148,1.936-0.447,2.521c-0.289,0.576-0.686,1.028-1.172,1.344
			c-0.484,0.314-0.986,0.468-1.529,0.468c-0.631,0-1.137-0.155-1.551-0.474c-0.166-0.129-0.557-0.675-0.557-2.948V6.073L52.43,5.591
			h-2.092l-0.48,0.482v7.963c0,2.162,0.461,3.582,1.412,4.342c0.904,0.723,2.016,1.089,3.299,1.089c0.59,0,1.143-0.098,1.645-0.291
			c0.492-0.188,0.975-0.47,1.438-0.836c0.174-0.139,0.346-0.299,0.518-0.481v0.778l0.482,0.482h2.092l0.482-0.482V6.073
			l-0.482-0.482H58.65z"/>
		<path fill="#040200" d="M73.736,13.247c-0.201-0.456-0.512-0.849-0.934-1.173c-0.275-0.204-0.557-0.375-0.832-0.508
			c-0.176-0.085-0.572-0.244-1.967-0.646l-1.736-0.495c-0.758-0.219-1.107-0.426-1.27-0.562c-0.176-0.151-0.26-0.336-0.26-0.583
			c0-0.363,0.152-0.651,0.48-0.91c0.354-0.278,0.895-0.419,1.613-0.419c0.609,0,1.094,0.099,1.438,0.296
			c0.344,0.196,0.387,0.409,0.387,0.616l0.482,0.482h2.104l0.48-0.527c0-0.912-0.379-1.745-1.129-2.477
			c-0.758-0.739-1.951-1.099-3.65-1.099c-1.691,0-3.002,0.422-3.889,1.255c-0.895,0.841-1.35,1.837-1.35,2.961
			c0,1.626,0.938,2.796,2.809,3.485l3.209,1.001c1.1,0.34,1.227,0.838,1.227,1.183c0,0.418-0.201,0.779-0.615,1.105
			c-0.441,0.35-1.041,0.526-1.781,0.526c-0.838,0-1.447-0.144-1.76-0.416c-0.305-0.266-0.447-0.577-0.447-1.025l-0.482-0.481h-2.092
			l-0.482,0.526c0,0.815,0.236,1.546,0.699,2.171c0.451,0.608,1.061,1.089,1.812,1.429c0.738,0.335,1.668,0.504,2.762,0.504
			c1.748,0,3.109-0.453,4.045-1.348c0.943-0.901,1.42-2.025,1.42-3.341C74.027,14.204,73.93,13.689,73.736,13.247z"/>
		<polygon fill="#040200" points="11.009,6.401 10.657,5.59 8.238,5.59 7.885,5.744 3.146,10.832 3.146,0.482 2.665,0 0.482,0 
			0,0.482 0,18.637 0.482,19.118 2.665,19.118 3.146,18.637 3.146,13.371 7.87,18.948 8.238,19.118 10.859,19.118 11.227,18.325 
			5.834,11.958 		"/>
		<path fill="#040200" d="M22.641,5.59l-0.443,0.294l-3.516,8.318l-3.751-8.329l-0.44-0.284h-2.319L11.732,6.27l5.308,11.821
			l-0.126,0.301c-0.581,1.365-0.912,1.896-1.087,2.103c-0.235,0.274-0.523,0.47-0.879,0.596c-0.382,0.135-0.839,0.203-1.358,0.203
			h-1.181l-0.482,0.481v1.744L12.408,24h1.575c0.964,0,1.727-0.123,2.33-0.375c0.602-0.253,1.175-0.688,1.704-1.295
			c0.518-0.597,1.13-1.743,1.87-3.505l5.293-12.566L24.736,5.59H22.641z"/>
		<path fill="#040200" d="M31.66,5.55c-0.521,0.203-1.016,0.5-1.474,0.885c-0.125,0.105-0.247,0.221-0.366,0.349V6.072L29.339,5.59
			h-2.092l-0.482,0.482v12.564l0.482,0.481h2.092l0.482-0.481v-6.209c0-1.605,0.329-2.719,0.979-3.311
			c0.67-0.612,1.332-0.909,2.02-0.909c0.494,0,0.969,0.105,1.408,0.313l0.688-0.436V5.915l-0.305-0.448
			C33.821,5.155,32.67,5.157,31.66,5.55z"/>
		<path fill="#040200" d="M46.979,5.59h-2.094l-0.482,0.482v6.175c0,1.089-0.148,1.937-0.445,2.521
			c-0.291,0.576-0.686,1.028-1.172,1.344c-0.486,0.314-0.986,0.468-1.531,0.468c-0.629,0-1.137-0.155-1.551-0.474
			c-0.166-0.129-0.557-0.674-0.557-2.948V6.072L38.666,5.59h-2.092l-0.482,0.482v7.964c0,2.162,0.462,3.582,1.412,4.341
			c0.905,0.724,2.016,1.09,3.299,1.09c0.588,0,1.141-0.098,1.645-0.291c0.49-0.188,0.975-0.471,1.438-0.836
			c0.174-0.139,0.346-0.298,0.518-0.481v0.778l0.482,0.481h2.094l0.48-0.481V6.072L46.979,5.59z"/>
	</g>
	<g>
		<g>
			<g>
				<g>
					<path fill="#FFFFFF" d="M58.65,6.591l-0.482,0.482v6.175c0,1.087-0.148,1.936-0.447,2.521
						c-0.289,0.576-0.686,1.028-1.172,1.344c-0.484,0.314-0.986,0.468-1.529,0.468c-0.631,0-1.137-0.155-1.551-0.474
						c-0.166-0.129-0.557-0.675-0.557-2.948V7.073L52.43,6.591h-2.092l-0.48,0.482v7.963c0,2.162,0.461,3.582,1.412,4.342
						c0.904,0.723,2.016,1.089,3.299,1.089c0.59,0,1.143-0.098,1.645-0.291c0.492-0.188,0.975-0.47,1.438-0.836
						c0.174-0.139,0.346-0.299,0.518-0.481v0.778l0.482,0.482h2.092l0.482-0.482V7.073l-0.482-0.482H58.65z"/>
					<path fill="#FFFFFF" d="M73.736,14.247c-0.201-0.456-0.512-0.849-0.934-1.173c-0.275-0.204-0.557-0.375-0.832-0.508
						c-0.176-0.085-0.572-0.244-1.967-0.646l-1.736-0.495c-0.758-0.219-1.107-0.426-1.27-0.562c-0.176-0.151-0.26-0.336-0.26-0.583
						c0-0.363,0.152-0.651,0.48-0.91c0.354-0.278,0.895-0.419,1.613-0.419c0.609,0,1.094,0.099,1.438,0.296
						c0.344,0.196,0.387,0.409,0.387,0.616l0.482,0.482h2.104l0.48-0.527c0-0.912-0.379-1.745-1.129-2.477
						c-0.758-0.739-1.951-1.099-3.65-1.099c-1.691,0-3.002,0.422-3.889,1.255c-0.895,0.841-1.35,1.837-1.35,2.961
						c0,1.626,0.938,2.796,2.809,3.485l3.209,1.001c1.1,0.34,1.227,0.838,1.227,1.183c0,0.418-0.201,0.779-0.615,1.105
						c-0.441,0.35-1.041,0.526-1.781,0.526c-0.838,0-1.447-0.144-1.76-0.416c-0.305-0.266-0.447-0.577-0.447-1.025l-0.482-0.481
						h-2.092l-0.482,0.526c0,0.815,0.236,1.546,0.699,2.171c0.451,0.608,1.061,1.089,1.812,1.429
						c0.738,0.335,1.668,0.504,2.762,0.504c1.748,0,3.109-0.453,4.045-1.348c0.943-0.901,1.42-2.025,1.42-3.341
						C74.027,15.204,73.93,14.689,73.736,14.247z"/>
				</g>
				<g>
					<polygon fill="#FFFFFF" points="11.009,7.401 10.657,6.59 8.238,6.59 7.885,6.744 3.146,11.832 3.146,1.482 2.665,1 0.482,1 
						0,1.482 0,19.637 0.482,20.118 2.665,20.118 3.146,19.637 3.146,14.371 7.87,19.948 8.238,20.118 10.859,20.118 11.227,19.325 
						5.834,12.958 					"/>
					<path fill="#FFFFFF" d="M22.641,6.59l-0.443,0.294l-3.516,8.318l-3.751-8.329l-0.44-0.284h-2.319L11.732,7.27l5.308,11.821
						l-0.126,0.301c-0.581,1.365-0.912,1.896-1.087,2.103c-0.235,0.274-0.523,0.47-0.879,0.596
						c-0.382,0.135-0.839,0.203-1.358,0.203h-1.181l-0.482,0.481v1.744L12.408,25h1.575c0.964,0,1.727-0.123,2.33-0.375
						c0.602-0.253,1.175-0.688,1.704-1.295c0.518-0.597,1.13-1.743,1.87-3.505l5.293-12.566L24.736,6.59H22.641z"/>
					<path fill="#FFFFFF" d="M31.66,6.55c-0.521,0.203-1.016,0.5-1.474,0.885c-0.125,0.105-0.247,0.221-0.366,0.349V7.072
						L29.339,6.59h-2.092l-0.482,0.482v12.564l0.482,0.481h2.092l0.482-0.481v-6.209c0-1.605,0.329-2.719,0.979-3.311
						c0.67-0.612,1.332-0.909,2.02-0.909c0.494,0,0.969,0.105,1.408,0.313l0.688-0.436V6.915l-0.305-0.448
						C33.821,6.155,32.67,6.157,31.66,6.55z"/>
					<path fill="#FFFFFF" d="M46.979,6.59h-2.094l-0.482,0.482v6.175c0,1.089-0.148,1.937-0.445,2.521
						c-0.291,0.576-0.686,1.028-1.172,1.344c-0.486,0.314-0.986,0.468-1.531,0.468c-0.629,0-1.137-0.155-1.551-0.474
						c-0.166-0.129-0.557-0.674-0.557-2.948V7.072L38.666,6.59h-2.092l-0.482,0.482v7.964c0,2.162,0.462,3.582,1.412,4.341
						c0.905,0.724,2.016,1.09,3.299,1.09c0.588,0,1.141-0.098,1.645-0.291c0.49-0.188,0.975-0.471,1.438-0.836
						c0.174-0.139,0.346-0.298,0.518-0.481v0.778l0.482,0.481h2.094l0.48-0.481V7.072L46.979,6.59z"/>
				</g>
			</g>
		</g>
	</g>
</g>
</svg>
