<?xml version="1.0" encoding="utf-8"?>
<!-- Generator: Adobe Illustrator 16.0.1, SVG Export Plug-In . SVG Version: 6.00 Build 0)  -->
<!DOCTYPE svg PUBLIC "-//W3C//DTD SVG 1.1//EN" "http://www.w3.org/Graphics/SVG/1.1/DTD/svg11.dtd">
<svg version="1.1" id="Layer_1" xmlns="http://www.w3.org/2000/svg" xmlns:xlink="http://www.w3.org/1999/xlink" x="0px" y="0px"
	 width="131px" height="25px" viewBox="0 0 131 25" enable-background="new 0 0 131 25" xml:space="preserve">
<g>
	<g opacity="0.33">
		<path fill="#005F9B" d="M19.293,0H4.706C2.111,0,0,2.11,0,4.706v14.588C0,21.889,2.111,24,4.706,24h14.587
			C21.889,24,24,21.889,24,19.294V4.706C24,2.11,21.889,0,19.293,0L19.293,0z"/>
	</g>
	<g>
		<path fill="#FFFFFF" d="M19.293,1H4.706C2.111,1,0,3.11,0,5.706v14.588C0,22.889,2.111,25,4.706,25h14.587
			C21.889,25,24,22.889,24,20.294V5.706C24,3.11,21.889,1,19.293,1L19.293,1z"/>
	</g>
</g>
<path fill="#009ADD" d="M19.293,2.411c1.812,0,3.294,1.482,3.294,3.295v14.588c0,1.812-1.482,3.294-3.294,3.294H4.706
	c-1.812,0-3.294-1.482-3.294-3.294V5.706c0-1.812,1.483-3.295,3.294-3.295H19.293"/>
<g>
	<path fill="#005F9B" d="M5.706,2.412h-1c-1.812,0-3.294,1.482-3.294,3.294v14.588c0,1.812,1.483,3.294,3.294,3.294h1V2.412z"/>
</g>
<g id="rePdum_1_" display="none">
	
		<image display="inline" overflow="visible" enable-background="new    " width="249" height="50" id="rePdum_4_" xlink:href="AD558DBCBEF5B390.jpeg"  transform="matrix(0.9993 0 0 0.9993 -53.4785 -13.0293)">
	</image>
</g>
<g>
	<g opacity="0.33">
		<path fill="#005F9B" d="M31.717,5.646h1.557V8.19h0.053c0.778-1.817,2.709-2.934,4.936-2.934c4.213,0,6.225,3.297,6.225,7.088
			c0,3.79-2.012,7.088-6.225,7.088c-2.064,0-4.077-1.014-4.802-2.935h-0.054V24h-1.69V5.646z M38.264,6.632
			c-3.729,0-4.856,2.674-4.856,5.712c0,2.777,1.261,5.711,4.856,5.711c3.22,0,4.535-2.934,4.535-5.711
			C42.799,9.565,41.484,6.632,38.264,6.632z"/>
		<path fill="#005F9B" d="M46.822,9.747c0.161-3.142,2.442-4.491,5.607-4.491c2.442,0,5.098,0.727,5.098,4.31v7.114
			c0,0.622,0.322,0.985,0.993,0.985c0.188,0,0.402-0.052,0.537-0.104v1.377c-0.375,0.076-0.644,0.104-1.101,0.104
			c-1.717,0-1.985-0.937-1.985-2.336h-0.054c-1.18,1.737-2.387,2.728-5.044,2.728c-2.549,0-4.642-1.223-4.642-3.922
			c0-3.765,3.784-3.895,7.433-4.31c1.396-0.156,2.173-0.338,2.173-1.817c0-2.207-1.637-2.752-3.622-2.752
			c-2.093,0-3.649,0.935-3.702,3.115L46.822,9.747L46.822,9.747z M55.837,11.721h-0.054c-0.214,0.388-0.966,0.519-1.421,0.597
			c-2.871,0.492-6.439,0.468-6.439,3.09c0,1.635,1.502,2.646,3.086,2.646c2.575,0,4.855-1.582,4.829-4.205L55.837,11.721
			L55.837,11.721z"/>
		<path fill="#005F9B" d="M69.062,9.565c-0.08-2.024-1.689-2.934-3.623-2.934c-1.503,0-3.273,0.571-3.273,2.31
			c0,1.454,1.717,1.975,2.87,2.26l2.255,0.493c1.933,0.286,3.942,1.375,3.942,3.713c0,2.907-2.979,4.022-5.554,4.022
			c-3.219,0-5.419-1.453-5.688-4.726h1.69c0.135,2.206,1.826,3.351,4.079,3.351c1.583,0,3.784-0.678,3.784-2.546
			c0-1.558-1.504-2.075-3.031-2.44l-2.175-0.467c-2.199-0.569-3.863-1.297-3.863-3.582c0-2.727,2.764-3.765,5.205-3.765
			c2.762,0,4.963,1.402,5.072,4.31L69.062,9.565L69.062,9.565z"/>
		<path fill="#005F9B" d="M81.832,9.565c-0.08-2.024-1.689-2.934-3.621-2.934c-1.502,0-3.273,0.571-3.273,2.31
			c0,1.454,1.717,1.975,2.871,2.26l2.254,0.493c1.934,0.286,3.943,1.375,3.943,3.713c0,2.907-2.977,4.022-5.553,4.022
			c-3.219,0-5.422-1.453-5.688-4.726h1.688c0.135,2.206,1.822,3.351,4.078,3.351c1.58,0,3.779-0.678,3.779-2.546
			c0-1.558-1.502-2.075-3.029-2.44l-2.176-0.467c-2.197-0.569-3.859-1.297-3.859-3.582c0-2.727,2.762-3.765,5.205-3.765
			c2.764,0,4.963,1.402,5.068,4.31L81.832,9.565L81.832,9.565z"/>
		<path fill="#005F9B" d="M86.312,5.646h1.557V8.19h0.053c0.779-1.817,2.711-2.934,4.938-2.934c4.215,0,6.227,3.297,6.227,7.088
			c0,3.79-2.012,7.088-6.227,7.088c-2.064,0-4.076-1.014-4.803-2.935h-0.055V24h-1.689V5.646L86.312,5.646z M92.859,6.632
			c-3.73,0-4.857,2.674-4.857,5.712c0,2.777,1.262,5.711,4.857,5.711c3.219,0,4.533-2.934,4.533-5.711
			C97.393,9.565,96.078,6.632,92.859,6.632z"/>
		<path fill="#005F9B" d="M113.973,12.344c0,3.842-2.307,7.088-6.547,7.088c-4.238,0-6.547-3.246-6.547-7.088
			c0-3.843,2.309-7.088,6.547-7.088C111.666,5.256,113.973,8.501,113.973,12.344z M102.57,12.344c0,2.854,1.609,5.711,4.854,5.711
			c3.246,0,4.854-2.854,4.854-5.711c0-2.856-1.607-5.712-4.854-5.712C104.18,6.632,102.57,9.487,102.57,12.344z"/>
		<path fill="#005F9B" d="M116.359,5.646h1.557v3.141h0.053c0.859-2.154,2.736-3.427,5.232-3.322V7.1
			c-3.061-0.156-5.152,2.024-5.152,4.803v7.139h-1.689V5.646L116.359,5.646z"/>
		<path fill="#005F9B" d="M127.359,5.646h2.814v1.375h-2.814v9.036c0,1.063,0.16,1.688,1.367,1.764c0.482,0,0.967-0.023,1.447-0.075
			v1.399c-0.51,0-0.99,0.055-1.504,0.055c-2.252,0-3.029-0.729-3.004-3.014V7.021h-2.416V5.646h2.416V1.621h1.689v4.025H127.359z"/>
	</g>
	<g>
		<g>
			<path fill="#FFFFFF" d="M31.717,6.646h1.557V9.19h0.053c0.778-1.817,2.709-2.934,4.936-2.934c4.213,0,6.225,3.297,6.225,7.088
				c0,3.79-2.012,7.088-6.225,7.088c-2.064,0-4.077-1.014-4.802-2.935h-0.054V25h-1.69V6.646z M38.264,7.632
				c-3.729,0-4.856,2.674-4.856,5.712c0,2.777,1.261,5.711,4.856,5.711c3.22,0,4.535-2.934,4.535-5.711
				C42.799,10.565,41.484,7.632,38.264,7.632z"/>
			<path fill="#FFFFFF" d="M46.822,10.747c0.161-3.142,2.442-4.491,5.607-4.491c2.442,0,5.098,0.727,5.098,4.31v7.114
				c0,0.622,0.322,0.985,0.993,0.985c0.188,0,0.402-0.052,0.537-0.104v1.377c-0.375,0.076-0.644,0.104-1.101,0.104
				c-1.717,0-1.985-0.937-1.985-2.336h-0.054c-1.18,1.737-2.387,2.728-5.044,2.728c-2.549,0-4.642-1.223-4.642-3.922
				c0-3.765,3.784-3.895,7.433-4.31c1.396-0.156,2.173-0.338,2.173-1.817c0-2.207-1.637-2.752-3.622-2.752
				c-2.093,0-3.649,0.935-3.702,3.115L46.822,10.747L46.822,10.747z M55.837,12.721h-0.054c-0.214,0.388-0.966,0.519-1.421,0.597
				c-2.871,0.492-6.439,0.468-6.439,3.09c0,1.635,1.502,2.646,3.086,2.646c2.575,0,4.855-1.582,4.829-4.205L55.837,12.721
				L55.837,12.721z"/>
			<path fill="#FFFFFF" d="M69.062,10.565c-0.08-2.024-1.689-2.934-3.623-2.934c-1.503,0-3.273,0.571-3.273,2.31
				c0,1.454,1.717,1.975,2.87,2.26l2.255,0.493c1.933,0.286,3.942,1.375,3.942,3.713c0,2.907-2.979,4.022-5.554,4.022
				c-3.219,0-5.419-1.453-5.688-4.726h1.69c0.135,2.206,1.826,3.351,4.079,3.351c1.583,0,3.784-0.678,3.784-2.546
				c0-1.558-1.504-2.075-3.031-2.44l-2.175-0.467c-2.199-0.569-3.863-1.297-3.863-3.583c0-2.727,2.764-3.765,5.205-3.765
				c2.762,0,4.963,1.402,5.072,4.31L69.062,10.565L69.062,10.565z"/>
			<path fill="#FFFFFF" d="M81.832,10.565c-0.08-2.024-1.689-2.934-3.621-2.934c-1.502,0-3.273,0.571-3.273,2.31
				c0,1.454,1.717,1.975,2.871,2.26l2.254,0.493c1.934,0.286,3.943,1.375,3.943,3.713c0,2.907-2.977,4.022-5.553,4.022
				c-3.219,0-5.422-1.453-5.688-4.726h1.688c0.135,2.206,1.822,3.351,4.078,3.351c1.58,0,3.779-0.678,3.779-2.546
				c0-1.558-1.502-2.075-3.029-2.44l-2.176-0.467c-2.197-0.569-3.859-1.297-3.859-3.583c0-2.727,2.762-3.765,5.205-3.765
				c2.764,0,4.963,1.402,5.068,4.31L81.832,10.565L81.832,10.565z"/>
			<path fill="#FFFFFF" d="M86.312,6.646h1.557V9.19h0.053c0.779-1.817,2.711-2.934,4.938-2.934c4.215,0,6.227,3.297,6.227,7.088
				c0,3.79-2.012,7.088-6.227,7.088c-2.064,0-4.076-1.014-4.803-2.935h-0.055V25h-1.689V6.646L86.312,6.646z M92.859,7.632
				c-3.73,0-4.857,2.674-4.857,5.712c0,2.777,1.262,5.711,4.857,5.711c3.219,0,4.533-2.934,4.533-5.711
				C97.393,10.565,96.078,7.632,92.859,7.632z"/>
			<path fill="#FFFFFF" d="M113.973,13.344c0,3.842-2.307,7.088-6.547,7.088c-4.238,0-6.547-3.246-6.547-7.088
				c0-3.843,2.309-7.088,6.547-7.088C111.666,6.256,113.973,9.501,113.973,13.344z M102.57,13.344c0,2.854,1.609,5.711,4.854,5.711
				c3.246,0,4.854-2.854,4.854-5.711c0-2.856-1.607-5.712-4.854-5.712C104.18,7.632,102.57,10.487,102.57,13.344z"/>
			<path fill="#FFFFFF" d="M116.359,6.646h1.557v3.141h0.053c0.859-2.154,2.736-3.427,5.232-3.322V8.1
				c-3.061-0.156-5.152,2.024-5.152,4.803v7.139h-1.689V6.646L116.359,6.646z"/>
			<path fill="#FFFFFF" d="M127.359,6.646h2.814v1.375h-2.814v9.036c0,1.063,0.16,1.688,1.367,1.764
				c0.482,0,0.967-0.023,1.447-0.075v1.399c-0.51,0-0.99,0.055-1.504,0.055c-2.252,0-3.029-0.729-3.004-3.014V8.021h-2.416V6.646
				h2.416V2.621h1.689v4.025H127.359z"/>
		</g>
	</g>
</g>
<path fill="#005F9B" d="M17.802,14c-0.195,0-0.418,0.056-0.595,0.133c-0.323,0.141-0.569,0.415-0.755,0.703
	c-0.219,0.338-0.19,0.688-0.261,1.067c-0.096,0.519-0.411,0.901-0.787,1.258C15.112,17.438,15,17.594,15,18
	c0,0.227-0.269,0.438-0.5,0.438s-0.419-0.185-0.419-0.411c0-0.406-0.193-0.59-0.485-0.866c-0.376-0.356-0.691-0.739-0.787-1.258
	c-0.071-0.38-0.042-0.729-0.261-1.067c-0.186-0.288-0.431-0.562-0.755-0.703C11.616,14.056,11.393,14,11.198,14
	C9.083,14,8,15.842,8,18.823C8,20.158,8.953,21,10.464,21H14.5h4.036C20.047,21,21,20.158,21,18.823C21,15.842,19.917,14,17.802,14z
	"/>
<circle fill="#005F9B" cx="14.5" cy="10.5" r="3.5"/>
<path fill="#FFFFFF" d="M17.802,13c-0.195,0-0.418,0.056-0.595,0.133c-0.323,0.141-0.569,0.415-0.755,0.703
	c-0.219,0.338-0.19,0.688-0.261,1.067c-0.096,0.519-0.411,0.901-0.787,1.258C15.112,16.438,15,16.594,15,17
	c0,0.227-0.269,0.438-0.5,0.438s-0.419-0.185-0.419-0.411c0-0.406-0.193-0.59-0.485-0.866c-0.376-0.356-0.691-0.739-0.787-1.258
	c-0.071-0.38-0.042-0.729-0.261-1.067c-0.186-0.288-0.431-0.562-0.755-0.703C11.616,13.056,11.393,13,11.198,13
	C9.083,13,8,14.842,8,17.823C8,19.158,8.953,20,10.464,20H14.5h4.036C20.047,20,21,19.158,21,17.823C21,14.842,19.917,13,17.802,13z
	"/>
<circle fill="#FFFFFF" cx="14.5" cy="9.5" r="3.5"/>
<path fill="#009ADD" d="M17,16.5c0-0.828,0.671-1.5,1.5-1.5l0,0c0.828,0,1.5,0.672,1.5,1.5l0,0c0,0.828-0.672,1.5-1.5,1.5l0,0
	C17.671,18,17,17.328,17,16.5L17,16.5z"/>
<g>
	<path fill="#009ADD" d="M16.5,19c-1.378,0-2.5-1.121-2.5-2.5h1c0,0.827,0.673,1.5,1.5,1.5s1.5-0.673,1.5-1.5h1
		C19,17.879,17.878,19,16.5,19z"/>
</g>
<path fill="#FFFFFF" d="M18,16.5c0-0.276,0.223-0.5,0.5-0.5l0,0c0.276,0,0.5,0.224,0.5,0.5l0,0c0,0.275-0.224,0.5-0.5,0.5l0,0
	C18.223,17,18,16.775,18,16.5L18,16.5z"/>
</svg>
